<?xml version="1.0" encoding="utf-8"?>
<!-- Generator: Adobe Illustrator 24.3.0, SVG Export Plug-In . SVG Version: 6.00 Build 0)  -->
<svg version="1.1" id="Calque_1" xmlns="http://www.w3.org/2000/svg" xmlns:xlink="http://www.w3.org/1999/xlink" x="0px" y="0px"
	 viewBox="0 0 592.4 768" style="enable-background:new 0 0 592.4 768;" xml:space="preserve">
<style type="text/css">
	.st0{opacity:0.37;}
	.st1{clip-path:url(#SVGID_2_);}
	.st2{clip-path:url(#SVGID_4_);}
	.st3{clip-path:url(#SVGID_6_);}
	.st4{fill:#FFFFFF;}
	.st5{fill:#333333;}
</style>
<g class="st0">
	
		<image style="overflow:visible;enable-background:new    ;" width="451" height="219" xlink:href="F6548EB44384EC39.png"  transform="matrix(1 0 0 1 73.3084 192)">
	</image>
</g>
<g>
	<defs>
		<path id="SVGID_1_" d="M394.8,82.7c-49.4-49.3-129.4-49.3-178.7,0c-49.4,49.4-105,283.7-105,283.7s234.3-55.6,283.7-104.9
			C444.2,212.1,444.2,132.1,394.8,82.7z"/>
	</defs>
	<clipPath id="SVGID_2_">
		<use xlink:href="#SVGID_1_"  style="overflow:visible;"/>
	</clipPath>
	<g class="st1">
		<g>
			<defs>
				<rect id="SVGID_3_" x="106.1" y="40.7" width="330.6" height="330.7"/>
			</defs>
			<clipPath id="SVGID_4_">
				<use xlink:href="#SVGID_3_"  style="overflow:visible;"/>
			</clipPath>
			<g class="st2">
				<g>
					<defs>
						<rect id="SVGID_5_" x="106.1" y="40.7" width="330.6" height="330.7"/>
					</defs>
					<clipPath id="SVGID_6_">
						<use xlink:href="#SVGID_5_"  style="overflow:visible;"/>
					</clipPath>
					<g class="st3">
						
							<image style="overflow:visible;enable-background:new    ;" width="690" height="690" xlink:href="F6548EB44384EC3B.png"  transform="matrix(0.48 0 0 0.48 105.9485 40.32)">
						</image>
					</g>
				</g>
			</g>
		</g>
	</g>
</g>
<path class="st4" d="M286.7,107.7h38V152h44.4v38h-44.3v44.4h-38v-44.3h-44.4V152h44.3V107.7z"/>
<path class="st5" d="M244.7,531.8l15.3-74.4h30.1l-29.8,116.9h-26.1l-22.2-73.6L190,574.3h-26l-29.9-116.9h30.2l15.2,74.3l21.4-74.3
	h22.6L244.7,531.8z"/>
<path class="st5" d="M305.5,427.2c-0.1-4.3,1.6-8.5,4.7-11.6c3.1-3,7.4-4.5,12.8-4.5c5.4,0,9.6,1.5,12.8,4.5
	c6.4,6.4,6.4,16.8,0,23.2c-3.2,3-7.4,4.5-12.7,4.5c-5.3,0-9.5-1.5-12.7-4.5C307.1,435.8,305.3,431.6,305.5,427.2z M338.6,574.3
	h-31.3V457.4h31.3L338.6,574.3z"/>
<path class="st5" d="M427.6,542c0-3.8-1.9-6.8-5.7-9s-9.9-4.1-18.2-5.9c-27.8-5.8-41.7-17.6-41.7-35.4c0-10.4,4.3-19,12.9-26
	c8.6-7,19.9-10.4,33.8-10.4c14.8,0,26.7,3.5,35.6,10.5c8.9,7,13.3,16.1,13.3,27.3h-31.2c0.1-4.1-1.4-8.1-4.3-11.1
	c-2.9-2.9-7.4-4.4-13.5-4.4c-5.2,0-9.3,1.2-12.2,3.6c-2.8,2.2-4.4,5.5-4.3,9.1c0,3.5,1.6,6.3,4.9,8.4c3.3,2.1,8.8,3.9,16.6,5.4
	c6.7,1.3,13.3,3,19.7,5.3c16.5,6.1,24.7,16.5,24.7,31.4c0,10.7-4.6,19.3-13.7,25.9s-21,9.9-35.4,9.9c-9.8,0-18.5-1.7-26.1-5.2
	c-7.1-3.1-13.3-8.1-17.9-14.4c-4.2-5.7-6.5-12.6-6.5-19.7H388c0.3,5.6,2.3,9.8,6.2,12.8c3.8,2.9,8.9,4.4,15.3,4.4
	c6,0,10.5-1.1,13.5-3.4C426,548.9,427.7,545.5,427.6,542z"/>
<path class="st5" d="M541.4,542c0-3.8-1.9-6.8-5.7-9c-3.8-2.2-9.9-4.1-18.2-5.9c-27.8-5.8-41.7-17.6-41.7-35.4
	c0-10.4,4.3-19,12.9-26c8.6-7,19.9-10.4,33.8-10.4c14.8,0,26.7,3.5,35.6,10.5c8.9,7,13.3,16.1,13.3,27.3h-31.2
	c0.1-4.1-1.4-8.1-4.3-11.1c-2.9-2.9-7.4-4.4-13.5-4.4c-5.3,0-9.3,1.2-12.2,3.6c-2.8,2.2-4.4,5.5-4.3,9.1c0,3.5,1.6,6.3,4.9,8.4
	c3.3,2.1,8.8,3.9,16.6,5.4c6.7,1.2,13.2,3,19.7,5.2c16.5,6.1,24.7,16.5,24.7,31.4c0,10.7-4.6,19.3-13.7,25.9s-21,9.9-35.4,9.9
	c-9.8,0-18.5-1.7-26.1-5.2c-7.1-3.1-13.3-8.1-17.9-14.4c-4.2-5.7-6.5-12.6-6.5-19.7h29.6c0.3,5.6,2.3,9.8,6.2,12.8
	c3.8,2.9,8.9,4.4,15.4,4.5c6,0,10.5-1.1,13.5-3.4C539.8,548.9,541.5,545.5,541.4,542z"/>
<path class="st5" d="M95.1,542.5c0-3.8-1.9-6.8-5.7-9c-3.8-2.2-9.8-4.2-18.1-5.9c-27.8-5.8-41.7-17.6-41.7-35.4
	c0-10.4,4.3-19,12.9-26c8.6-7,19.9-10.4,33.8-10.4c14.8,0,26.7,3.5,35.6,10.5c8.9,7,13.3,16.1,13.3,27.2H93.9
	c0.1-4.1-1.4-8.1-4.3-11.1c-2.9-2.9-7.4-4.3-13.5-4.3c-5.2,0-9.3,1.2-12.2,3.6c-2.8,2.2-4.4,5.5-4.3,9.1c0,3.5,1.6,6.2,4.9,8.4
	c3.3,2.1,8.8,4,16.6,5.5c6.7,1.3,13.2,3,19.7,5.2c16.5,6,24.7,16.5,24.7,31.4c0,10.7-4.6,19.3-13.7,25.9c-9.1,6.6-21,9.9-35.5,9.8
	c-9,0.2-17.9-1.6-26.1-5.2c-7.1-3.1-13.3-8.1-17.9-14.4c-4.2-5.7-6.5-12.6-6.5-19.7h29.6c0.3,5.5,2.3,9.8,6.2,12.8
	c3.8,3,8.9,4.4,15.3,4.4c6,0,10.5-1.1,13.5-3.4C93.5,549.4,95.2,546,95.1,542.5z"/>
<path class="st5" d="M112,708.1c-3.9,4.7-9.5,8.4-16.7,11c-7.7,2.7-15.8,4-23.9,3.9c-9.2,0-17.3-2-24.2-6
	c-7-4.1-12.6-10.2-16.1-17.5c-3.8-7.6-5.7-16.6-5.8-27v-7.2c0-10.6,1.8-19.8,5.4-27.6c3.2-7.4,8.6-13.6,15.5-17.8
	c6.8-4.1,14.7-6.2,23.7-6.2c12.6,0,22.5,3,29.6,9s11.3,14.8,12.6,26.3H90.6c-1-6.1-3.1-10.5-6.5-13.4c-3.3-2.8-7.9-4.2-13.8-4.2
	c-7.5,0-13.1,2.8-17,8.4c-3.9,5.6-5.9,13.9-5.9,25v6.8c0,11.2,2.1,19.6,6.4,25.3c4.2,5.7,10.5,8.5,18.6,8.5c8.2,0,14.1-1.8,17.6-5.3
	v-18.4h-20v-16.1H112L112,708.1z"/>
<path class="st5" d="M175.7,713.5c-5.2,6.3-12.4,9.5-21.6,9.5c-8.5,0-14.9-2.4-19.4-7.3c-4.5-4.9-6.7-12-6.8-21.4v-51.8h21.1v51.1
	c0,8.2,3.8,12.4,11.2,12.4c7.2,0,12.1-2.5,14.8-7.5v-56h21.2v79.1h-19.8L175.7,713.5z"/>
<path class="st5" d="M248.5,723c-11.6,0-21-3.6-28.3-10.7c-7.3-7.1-10.9-16.6-10.9-28.4v-2c-0.1-7.4,1.5-14.7,4.6-21.3
	c2.8-6,7.3-11,13-14.5c5.8-3.5,12.5-5.2,19.3-5.1c10.8,0,19.3,3.4,25.5,10.2s9.3,16.5,9.3,29v8.6h-50.3c0.5,4.8,2.7,9.2,6.2,12.4
	c3.6,3.2,8.2,4.8,13,4.7c8.1,0,14.5-2.9,19.1-8.8l10.4,11.6c-3.3,4.6-7.7,8.2-12.9,10.5C260.8,721.8,254.7,723.1,248.5,723z
	 M246.1,658c-3.9-0.1-7.6,1.4-10.2,4.3c-2.6,2.8-4.3,6.9-5,12.2h29.4v-1.7c-0.1-4.7-1.4-8.3-3.8-10.9S250.6,658,246.1,658z"/>
<path class="st5" d="M335.8,699.7c0-2.6-1.3-4.6-3.8-6.1s-6.7-2.8-12.3-4c-18.8-3.9-28.2-11.9-28.2-24c0-7,2.9-12.9,8.7-17.6
	c5.8-4.7,13.4-7,22.8-7c10,0,18.1,2.4,24.1,7.1c5.8,4.3,9.2,11.2,9,18.4H335c0.1-2.8-1-5.5-2.9-7.5c-1.9-2-5-3-9.1-3
	c-3.6,0-6.3,0.8-8.3,2.4c-1.9,1.5-3,3.7-2.9,6.1c0,2.3,1.3,4.5,3.3,5.7c2.2,1.5,6,2.7,11.2,3.8c4.5,0.8,9,2,13.3,3.5
	c11.1,4.1,16.7,11.2,16.7,21.3c0,7.2-3.1,13-9.3,17.5c-6.2,4.5-14.2,6.7-24,6.7c-6.1,0.1-12.1-1.1-17.7-3.5c-4.8-2.1-9-5.5-12.1-9.7
	c-2.8-3.9-4.4-8.5-4.4-13.3h20c0,3.4,1.5,6.5,4.2,8.6c2.6,2,6,3,10.4,3c4,0,7.1-0.8,9.2-2.3C334.6,704.4,335.8,702.1,335.8,699.7z"
	/>
<path class="st5" d="M412.7,699.7c0-2.6-1.3-4.6-3.8-6.1s-6.7-2.8-12.3-4c-18.8-3.9-28.2-11.9-28.2-24c0-7,2.9-12.9,8.7-17.6
	c5.8-4.7,13.4-7,22.8-7c10,0,18.1,2.4,24.1,7.1c5.8,4.3,9.2,11.2,9,18.4h-21.1c0.1-2.8-1-5.5-2.9-7.5c-1.9-2-5-3-9.1-3
	c-3.6,0-6.3,0.8-8.3,2.4c-1.9,1.5-3,3.7-2.9,6.1c0,2.3,1.3,4.5,3.3,5.7c2.2,1.4,6,2.7,11.2,3.7c4.5,0.8,9,2,13.3,3.5
	c11.2,4.1,16.8,11.2,16.8,21.3c0,7.2-3.1,13-9.3,17.5c-6.2,4.5-14.2,6.7-24,6.7c-6.1,0.1-12.1-1.1-17.7-3.5c-4.8-2.1-9-5.5-12.1-9.7
	c-2.8-3.9-4.4-8.5-4.4-13.3h20c0,3.4,1.5,6.5,4.2,8.6c2.6,2,6,3,10.4,3c4,0,7.1-0.8,9.2-2.3C411.6,704.4,412.8,702.1,412.7,699.7z"
	/>
<path class="st5" d="M483.3,723c-11.6,0-21-3.6-28.3-10.7c-7.3-7.1-10.9-16.6-11-28.4v-2c-0.1-7.4,1.4-14.6,4.6-21.3
	c2.8-6,7.3-11,13-14.5c5.8-3.5,12.5-5.2,19.3-5.1c10.8,0,19.3,3.4,25.5,10.2c6.2,6.8,9.3,16.5,9.3,29v8.6h-50.4
	c0.5,4.8,2.7,9.2,6.2,12.4c3.6,3.2,8.3,4.9,13,4.7c8.1,0,14.5-2.9,19.1-8.8l10.4,11.6c-3.3,4.6-7.7,8.2-12.9,10.5
	C495.6,721.8,489.5,723.1,483.3,723z M480.9,658c-3.9-0.1-7.6,1.4-10.2,4.3c-2.6,2.8-4.3,6.9-5,12.2h29.4v-1.7
	c-0.1-4.7-1.4-8.3-3.8-10.9S485.4,658,480.9,658L480.9,658z"/>
<path class="st5" d="M572.2,662.3c-2.5-0.4-5.1-0.6-7.6-0.6c-8,0-13.2,2.7-15.7,8.1v51.7h-21.1v-79.1h20l0.6,9.4
	c4.2-7.3,10.1-10.9,17.6-10.9c2.2,0,4.4,0.3,6.6,1L572.2,662.3z"/>
</svg>
